<svg width="24" height="25" viewBox="0 0 24 25" fill="none" xmlns="http://www.w3.org/2000/svg">
<path d="M2 12.3605C2 15.0126 3.05357 17.5562 4.92893 19.4315C6.8043 21.3069 9.34784 22.3605 12 22.3605C14.6522 22.3605 17.1957 21.3069 19.0711 19.4315C20.9464 17.5562 22 15.0126 22 12.3605C22 9.70831 20.9464 7.16477 19.0711 5.28941C17.1957 3.41404 14.6522 2.36047 12 2.36047C9.34784 2.36047 6.8043 3.41404 4.92893 5.28941C3.05357 7.16477 2 9.70831 2 12.3605V12.3605Z" stroke="#09051A" stroke-width="2" stroke-linecap="round" stroke-linejoin="round"/>
<path d="M12 12.3605V8.78905" stroke="#09051A" stroke-width="2" stroke-linecap="round" stroke-linejoin="round"/>
<path d="M12 12.3605L16.4638 16.8252" stroke="#09051A" stroke-width="2" stroke-linecap="round" stroke-linejoin="round"/>
</svg>
