<svg width="24" height="25" viewBox="0 0 24 25" fill="none" xmlns="http://www.w3.org/2000/svg">
<path d="M2.00024 12C2.00024 14.6522 3.05381 17.1957 4.92918 19.0711C6.80454 20.9464 9.34808 22 12.0002 22C14.6524 22 17.1959 20.9464 19.0713 19.0711C20.9467 17.1957 22.0002 14.6522 22.0002 12C22.0002 9.34784 20.9467 6.8043 19.0713 4.92893C17.1959 3.05357 14.6524 2 12.0002 2C9.34808 2 6.80454 3.05357 4.92918 4.92893C3.05381 6.8043 2.00024 9.34784 2.00024 12V12Z" stroke="black" stroke-width="2" stroke-linecap="round" stroke-linejoin="round"/>
<path d="M10.0002 14C10.0002 14.3956 10.1175 14.7822 10.3373 15.1111C10.5571 15.44 10.8694 15.6964 11.2349 15.8478C11.6003 15.9991 12.0025 16.0387 12.3904 15.9616C12.7784 15.8844 13.1348 15.6939 13.4145 15.4142C13.6942 15.1345 13.8846 14.7781 13.9618 14.3902C14.039 14.0022 13.9994 13.6001 13.848 13.2346C13.6966 12.8692 13.4403 12.5568 13.1114 12.3371C12.7825 12.1173 12.3958 12 12.0002 12C11.6047 12 11.218 11.8827 10.8891 11.6629C10.5602 11.4432 10.3039 11.1308 10.1525 10.7654C10.0011 10.3999 9.9615 9.99778 10.0387 9.60982C10.1158 9.22186 10.3063 8.86549 10.586 8.58579C10.8657 8.30608 11.2221 8.1156 11.6101 8.03843C11.998 7.96126 12.4002 8.00087 12.7656 8.15224C13.1311 8.30362 13.4434 8.55996 13.6632 8.88886C13.8829 9.21776 14.0002 9.60444 14.0002 10" stroke="black" stroke-width="2" stroke-linecap="round" stroke-linejoin="round"/>
<path d="M12.0002 6.66675V8.00008" stroke="black" stroke-width="2" stroke-linecap="round" stroke-linejoin="round"/>
<path d="M12.0002 16V17.3333" stroke="black" stroke-width="2" stroke-linecap="round" stroke-linejoin="round"/>
</svg>
