<svg width="24" height="24" viewBox="0 0 24 24" fill="none" xmlns="http://www.w3.org/2000/svg">
<path d="M3.08451 2.88454L13.8827 5.95379C14.6143 6.1941 15.2534 6.65552 15.7117 7.2744C16.17 7.89327 16.425 8.63911 16.4415 9.40904V19.7846C16.4723 20.1122 16.4228 20.4424 16.2974 20.7465C16.172 21.0507 15.9744 21.3197 15.7216 21.5304C15.4689 21.741 15.1686 21.8869 14.8469 21.9555C14.5251 22.0241 14.1914 22.0132 13.8748 21.9239L4.94245 19.4954C4.21068 19.2677 3.56905 18.8156 3.1084 18.2032C2.64776 17.5907 2.39143 16.8488 2.37569 16.0826V4.77703C2.35948 4.05994 2.62751 3.36553 3.1213 2.84529C3.6151 2.32505 4.29459 2.02119 5.01155 2H18.6627C19.4482 2 20.2015 2.31203 20.7569 2.86744C21.3124 3.42286 21.6244 4.17616 21.6244 4.96164V13.8002C21.6209 14.1994 21.5387 14.5941 21.3824 14.9616C21.2261 15.329 20.9988 15.662 20.7136 15.9414C20.4284 16.2209 20.0908 16.4413 19.7202 16.59C19.3497 16.7387 18.9534 16.8129 18.5541 16.8082H16.4415" stroke="black" stroke-width="2" stroke-linecap="round" stroke-linejoin="round"/>
<path d="M12.3687 13.1062C12.442 13.1062 12.5135 13.1279 12.5744 13.1686C12.6353 13.2093 12.6827 13.2671 12.7108 13.3347C12.7388 13.4024 12.7461 13.4768 12.7318 13.5486C12.7175 13.6204 12.6823 13.6864 12.6305 13.7382C12.5787 13.79 12.5128 13.8252 12.441 13.8395C12.3692 13.8538 12.2947 13.8465 12.2271 13.8184C12.1594 13.7904 12.1016 13.743 12.0609 13.6821C12.0202 13.6212 11.9985 13.5496 11.9985 13.4764C11.9985 13.3782 12.0375 13.2841 12.107 13.2146C12.1764 13.1452 12.2706 13.1062 12.3687 13.1062" stroke="black" stroke-width="2" stroke-linecap="round" stroke-linejoin="round"/>
</svg>
